<?xml version="1.0" standalone="no"?>
<!DOCTYPE svg PUBLIC "-//W3C//DTD SVG 20010904//EN"
 "http://www.w3.org/TR/2001/REC-SVG-20010904/DTD/svg10.dtd">
<svg version="1.0" xmlns="http://www.w3.org/2000/svg"
 width="700.000000pt" height="700.000000pt" viewBox="0 0 700.000000 700.000000"
 preserveAspectRatio="xMidYMid meet">
<metadata>
Created by potrace 1.14, written by Peter Selinger 2001-2017
</metadata>
<g transform="translate(0.000000,700.000000) scale(0.100000,-0.100000)"
fill="#000000" stroke="none">
<path d="M3436 6635 c-32 -19 -60 -35 -61 -35 -2 0 -192 -111 -255 -149 -51
-31 -606 -357 -615 -361 -5 -3 -36 -21 -68 -40 -79 -48 -84 -50 -152 -90 -72
-41 -354 -206 -375 -220 -8 -5 -60 -35 -114 -67 -55 -32 -116 -68 -136 -79
-20 -12 -157 -92 -305 -179 -149 -87 -287 -169 -307 -182 -21 -12 -40 -23 -42
-23 -3 0 -34 -18 -68 -40 l-63 -40 0 -1536 -1 -1536 26 -18 c14 -10 68 -42
120 -73 52 -30 262 -153 465 -272 204 -120 390 -229 415 -243 25 -14 57 -33
72 -43 14 -11 29 -19 32 -19 4 0 23 -11 44 -24 34 -22 631 -373 714 -420 39
-23 60 -35 466 -273 l274 -160 121 72 c67 40 176 104 242 142 66 39 157 92
203 119 46 27 97 57 115 68 18 10 124 72 236 138 112 66 221 130 241 141 37
21 510 300 540 318 8 4 62 36 120 69 58 34 112 65 120 70 19 12 204 120 239
140 14 9 48 29 76 45 27 17 62 37 77 45 14 8 86 50 160 94 l134 78 -1 1541 0
1541 -75 44 c-41 25 -219 129 -395 232 -176 103 -435 254 -575 337 -140 82
-392 230 -560 328 -168 97 -321 188 -340 200 -19 13 -51 32 -70 42 -19 10 -46
26 -60 34 -25 16 -249 147 -306 180 -17 9 -62 36 -99 58 -37 23 -70 41 -74 41
-3 0 -17 9 -31 20 -33 26 -37 26 -104 -15z"/>
</g>
</svg>
