<svg id="visual" viewBox="0 0 900 600" width="900" height="600" xmlns="http://www.w3.org/2000/svg" xmlns:xlink="http://www.w3.org/1999/xlink" version="1.1"><path d="M0 453L21.5 452.8C43 452.7 86 452.3 128.8 463.8C171.7 475.3 214.3 498.7 257.2 500.7C300 502.7 343 483.3 385.8 462.5C428.7 441.7 471.3 419.3 514.2 427.7C557 436 600 475 642.8 485.2C685.7 495.3 728.3 476.7 771.2 466.3C814 456 857 454 878.5 453L900 452L900 601L878.5 601C857 601 814 601 771.2 601C728.3 601 685.7 601 642.8 601C600 601 557 601 514.2 601C471.3 601 428.7 601 385.8 601C343 601 300 601 257.2 601C214.3 601 171.7 601 128.8 601C86 601 43 601 21.5 601L0 601Z" fill="#6EE7B7" stroke-linecap="round" stroke-linejoin="miter"></path></svg>