<svg id="visual" viewBox="0 0 960 540" width="960" height="540" xmlns="http://www.w3.org/2000/svg" xmlns:xlink="http://www.w3.org/1999/xlink" version="1.1"><path d="M0 407L22.8 407C45.7 407 91.3 407 137 417.5C182.7 428 228.3 449 274 450.8C319.7 452.7 365.3 435.3 411.2 416.5C457 397.7 503 377.3 548.8 384.7C594.7 392 640.3 427 686 436.2C731.7 445.3 777.3 428.7 823 419.5C868.7 410.3 914.3 408.7 937.2 407.8L960 407L960 541L937.2 541C914.3 541 868.7 541 823 541C777.3 541 731.7 541 686 541C640.3 541 594.7 541 548.8 541C503 541 457 541 411.2 541C365.3 541 319.7 541 274 541C228.3 541 182.7 541 137 541C91.3 541 45.7 541 22.8 541L0 541Z" fill="#6EE7B7" stroke-linecap="round" stroke-linejoin="miter"></path></svg>